PLOT

Wanting to raise their grades, a handful of college kids are randomly selected for
a field trip to study wildlife, but don't get the chance as cliché horror film-style
murders occur.
 
http://www.imdb.com/title/tt0475289/


Encoded By .......: BigPerm1828
Runtime ..........: 1h 29mn
File Size ........: 1.32 GB
Resolution .......: 672 x 336
IMDb URL .........: http://www.imdb.com/title/tt0475289/
Genre ............: Comedy | Horror
Language .........: English
Video
ID : 0
Format : MPEG-4 Visual
Format profile : Advanced Simple@L5
Format settings, BVOP : Yes
Format settings, QPel : No
Format settings, GMC : No warppoints
Format settings, Matrix : Default (H.263)
Muxing mode : Packed bitstream
Codec ID : XVID
Codec ID/Hint : XviD
Duration : 1h 29mn
Bit rate : 1 918 Kbps
Width : 672 pixels
Height : 336 pixels
Display aspect ratio : 2.000
Frame rate : 29.970 fps
Color space : YUV
Chroma subsampling : 4:2:0
Bit depth : 8 bits
Scan type : Progressive
Compression mode : Lossy
Bits/(Pixel*Frame) : 0.283
Stream size : 1.20 GiB (90%)
Writing library : XviD 1.2.1 (UTC 2008-12-04)

Audio
ID : 1
Format : AC-3
Format/Info : Audio Coding 3
Mode extension : CM (complete main)
Codec ID : 2000
Duration : 1h 29mn
Bit rate mode : Constant
Bit rate : 192 Kbps
Channel(s) : 2 channels
Channel positions : Front: L R
Sampling rate : 48.0 KHz
Bit depth : 16 bits
Compression mode : Lossy
Stream size : 122 MiB (9%)
Alignment : Aligned on interleaves
Interleave, duration : 33 ms (1.00 video frame)
Interleave, preload duration : 512 ms
 
http://leetleech.org/images/26592638682236527529.png
 
http://leetleech.org/images/87588396859791146586.png
 
http://leetleech.org/images/20530693867312600282.png
 
http://leetleech.org/images/47766163884213936256.png
 
http://leetleech.org/images/74715803779977415972.png